<svg width="50" height="50" viewBox="0 0 50 50" fill="none" xmlns="http://www.w3.org/2000/svg">
<g id="facebook 1" clip-path="url(#clip0_24_59)">
<g id="Group">
<path id="Vector" d="M47.2496 2.7504C45.4165 0.916914 43.208 0 40.6258 0H9.37558C6.79335 0 4.58487 0.916914 2.75104 2.7504C0.917555 4.58423 0.000640869 6.7926 0.000640869 9.37494V40.6248C0.000640869 43.2069 0.917555 45.4155 2.75104 47.2494C4.58487 49.0832 6.79335 50.0001 9.37558 50.0001H40.6255C43.2077 50.0001 45.4162 49.0832 47.2492 47.2494C49.083 45.4155 50 43.2071 50 40.6248V9.37494C49.9998 6.7926 49.0829 4.58389 47.2496 2.7504ZM42.5458 25.716H36.8493V46.3862H28.3207V25.716H24.0565V18.5868H28.3208V14.3224C28.3208 11.2625 29.0371 8.95149 30.4692 7.38879C31.9011 5.82609 34.2664 5.0452 37.5657 5.0452H43.2623V12.1741H39.6821C38.4664 12.1741 37.6906 12.3854 37.3542 12.809C37.018 13.2321 36.8494 13.9754 36.8494 15.0389V18.587H43.2951L42.5458 25.716Z" fill="white"/>
</g>
</g>
<defs>
<clipPath id="clip0_24_59">
<rect width="50" height="50" fill="white"/>
</clipPath>
</defs>
</svg>
