<svg width="52" height="52" viewBox="0 0 52 52" fill="none" xmlns="http://www.w3.org/2000/svg">
<g id="github 1" clip-path="url(#clip0_24_113)">
<g id="Group">
<path id="Vector" d="M48.5119 13.5852C46.187 9.60164 43.0333 6.44784 39.0501 4.1231C35.0663 1.79824 30.7171 0.636108 25.9996 0.636108C21.2826 0.636108 16.9321 1.7986 12.9491 4.1231C8.96553 6.44772 5.81197 9.60164 3.48699 13.5852C1.16237 17.5687 0 21.9186 0 26.635C0 32.3004 1.65291 37.3949 4.95955 41.9197C8.26583 46.4449 12.5371 49.5762 17.7729 51.3139C18.3823 51.427 18.8335 51.3475 19.1269 51.0772C19.4203 50.8066 19.5669 50.4678 19.5669 50.062C19.5669 49.9943 19.5611 49.3852 19.5498 48.234C19.5382 47.0827 19.5327 46.0784 19.5327 45.2215L18.7541 45.3562C18.2576 45.4472 17.6313 45.4857 16.8752 45.4748C16.1194 45.4642 15.3348 45.385 14.5224 45.2378C13.7097 45.0918 12.9538 44.7533 12.2541 44.2229C11.5548 43.6925 11.0583 42.9983 10.7649 42.1412L10.4263 41.3622C10.2007 40.8436 9.84546 40.2674 9.36014 39.6359C8.87482 39.0038 8.38405 38.5753 7.88758 38.3496L7.65056 38.1799C7.49262 38.0672 7.34606 37.9312 7.21053 37.7734C7.07512 37.6155 6.97374 37.4576 6.90604 37.2994C6.83821 37.1411 6.89442 37.0113 7.07524 36.9094C7.25606 36.8076 7.58285 36.7581 8.05702 36.7581L8.73384 36.8593C9.18524 36.9497 9.7436 37.22 10.4096 37.6716C11.0753 38.1229 11.6225 38.7096 12.0514 39.4315C12.5707 40.3571 13.1964 41.0623 13.9303 41.5476C14.6635 42.033 15.4028 42.2752 16.1475 42.2752C16.8921 42.2752 17.5353 42.2188 18.0771 42.1065C18.6184 41.9936 19.1263 41.8239 19.6004 41.5984C19.8036 40.0856 20.3566 38.9235 21.259 38.1112C19.9728 37.976 18.8163 37.7724 17.7891 37.5017C16.7625 37.2306 15.7017 36.7907 14.6072 36.1808C13.5122 35.5717 12.6038 34.8153 11.8818 33.913C11.1597 33.0102 10.5671 31.8249 10.1048 30.3583C9.64223 28.8911 9.41089 27.1986 9.41089 25.2803C9.41089 22.549 10.3026 20.2247 12.0855 18.3062C11.2503 16.2527 11.3292 13.9508 12.3223 11.4005C12.9768 11.1972 13.9475 11.3498 15.2338 11.8574C16.5203 12.3652 17.4622 12.8003 18.0605 13.161C18.6589 13.5215 19.1383 13.8271 19.4994 14.0749C21.5988 13.4883 23.7652 13.195 25.9993 13.195C28.2335 13.195 30.4004 13.4883 32.4999 14.0749L33.7863 13.2628C34.666 12.7209 35.7048 12.2243 36.9002 11.7729C38.0964 11.3218 39.0111 11.1975 39.6433 11.4009C40.6585 13.9512 40.749 16.2531 39.9135 18.3065C41.6964 20.2251 42.5884 22.5499 42.5884 25.2806C42.5884 27.1989 42.3562 28.8968 41.8944 30.3752C41.432 31.854 40.8342 33.038 40.101 33.9299C39.3669 34.8217 38.4527 35.5722 37.3583 36.1812C36.2636 36.7906 35.2024 37.2305 34.1758 37.5016C33.1487 37.7726 31.9923 37.9764 30.706 38.1118C31.8791 39.127 32.4658 40.7295 32.4658 42.9186V50.0611C32.4658 50.4668 32.6069 50.8056 32.8894 51.0763C33.1715 51.3465 33.6169 51.4261 34.2264 51.3128C39.4629 49.5754 43.7342 46.444 47.0403 41.9188C50.3461 37.3939 51.9996 32.2994 51.9996 26.634C51.9985 21.9183 50.8355 17.5687 48.5119 13.5852Z" fill="white"/>
</g>
</g>
<defs>
<clipPath id="clip0_24_113">
<rect width="52" height="52" fill="white"/>
</clipPath>
</defs>
</svg>
