<svg width="50" height="50" viewBox="0 0 50 50" fill="none" xmlns="http://www.w3.org/2000/svg">
<g id="Group">
<path id="Vector" d="M48.1126 1.88833C46.8539 0.629253 45.3454 0 43.5881 0H6.41329C4.65539 0 3.14742 0.629481 1.88834 1.88833C0.629497 3.14683 0.000244141 4.65503 0.000244141 6.41259V43.5871C0.000244141 45.3444 0.629383 46.8529 1.88834 48.1116C3.14742 49.3703 4.65573 50 6.41329 50H43.5877C45.3446 50 46.8535 49.3703 48.1123 48.1116C49.3713 46.8529 50 45.3444 50 43.5871V6.41259C49.9999 4.65469 49.3713 3.14729 48.1126 1.88833ZM17.9533 18.0173C19.9171 16.1187 22.2772 15.169 25.0333 15.169C27.8107 15.169 30.1815 16.1187 32.1457 18.0173C34.11 19.9163 35.0915 22.2114 35.0915 24.9023C35.0915 27.5928 34.11 29.8881 32.1457 31.7864C30.1815 33.6858 27.8115 34.6355 25.0333 34.6355C22.2773 34.6355 19.9174 33.685 17.9533 31.7864C15.989 29.8879 15.007 27.5928 15.007 24.9023C15.007 22.2114 15.989 19.9164 17.9533 18.0173ZM44.3369 42.253C44.3369 42.8168 44.141 43.2886 43.7507 43.6686C43.3593 44.0483 42.8934 44.2382 42.3504 44.2382H7.55276C6.98861 44.2382 6.51624 44.0483 6.1368 43.6686C5.75678 43.2894 5.56695 42.8168 5.56695 42.253V21.1585H10.1567C9.72282 22.5259 9.50585 23.9475 9.50585 25.4229C9.50585 29.5905 11.0248 33.1435 14.0629 36.0846C17.1015 39.0246 20.7581 40.4953 25.0332 40.4953C27.8544 40.4953 30.4584 39.8223 32.8463 38.4769C35.2335 37.1307 37.1203 35.3028 38.5102 32.9914C39.8992 30.68 40.5937 28.1571 40.5937 25.423C40.5937 23.9476 40.3759 22.5263 39.9421 21.1586H44.3371V42.2531H44.3369V42.253ZM44.3369 13.1832C44.3369 13.8125 44.1199 14.3443 43.6851 14.7783C43.2513 15.2125 42.7199 15.4294 42.0902 15.4294H36.4263C35.7973 15.4294 35.2651 15.2124 34.8312 14.7783C34.3973 14.3443 34.1804 13.8125 34.1804 13.1832V7.81259C34.1804 7.20488 34.3973 6.6787 34.8312 6.2337C35.2652 5.78892 35.7974 5.56625 36.4263 5.56625H42.0902C42.7199 5.56625 43.2514 5.78881 43.6851 6.2337C44.1198 6.6787 44.3369 7.20488 44.3369 7.81259V13.1832Z" fill="white"/>
</g>
</svg>
