<svg width="55" height="55" viewBox="0 0 55 55" fill="none" xmlns="http://www.w3.org/2000/svg">
<g id="twitter 1" clip-path="url(#clip0_24_131)">
<g id="Group">
<path id="Vector" d="M55 10.4702C52.8362 11.4009 50.6719 11.9822 48.5091 12.2156C50.952 10.7499 52.6043 8.67927 53.4652 6.00381C51.2307 7.32968 48.8464 8.23678 46.3106 8.7256C44.0769 6.35254 41.332 5.16553 38.0741 5.16553C34.9569 5.16553 32.299 6.26466 30.0996 8.46341C27.9013 10.662 26.802 13.3199 26.802 16.4374C26.802 17.2748 26.8949 18.1359 27.0812 19.0199C22.4745 18.7873 18.153 17.6299 14.1161 15.5476C10.0794 13.4651 6.65357 10.6906 3.83852 7.2242C2.81481 8.96872 2.30277 10.8652 2.30277 12.9125C2.30277 14.8435 2.75638 16.6352 3.66421 18.2871C4.57144 19.9387 5.79317 21.2764 7.32879 22.3002C5.51374 22.2303 3.81542 21.7532 2.23359 20.8691V21.0087C2.23359 23.7309 3.08861 26.121 4.79842 28.1806C6.50848 30.24 8.66653 31.5363 11.2721 32.0717C10.2948 32.3273 9.30581 32.4553 8.30557 32.4553C7.65406 32.4553 6.94437 32.3972 6.17674 32.2817C6.89792 34.538 8.22416 36.3928 10.155 37.8476C12.0861 39.3017 14.2732 40.0513 16.7161 40.099C12.6215 43.3091 7.95683 44.9141 2.72203 44.9141C1.72142 44.9141 0.814324 44.8685 -0.00012207 44.7749C5.2348 48.1481 11.0046 49.8347 17.3097 49.8347C21.3114 49.8347 25.0689 49.2014 28.5809 47.9331C32.0947 46.6656 35.0956 44.9668 37.5853 42.8376C40.0742 40.7089 42.221 38.2602 44.0239 35.4917C45.8268 32.723 47.1699 29.8325 48.0548 26.8197C48.9385 23.8062 49.3808 20.7882 49.3808 17.7631C49.3808 17.1116 49.369 16.6233 49.3457 16.2974C51.5565 14.6928 53.441 12.7498 55 10.4702Z" fill="white"/>
</g>
</g>
<defs>
<clipPath id="clip0_24_131">
<rect width="55" height="55" fill="white"/>
</clipPath>
</defs>
</svg>
