<svg width="53" height="53" viewBox="0 0 53 53" fill="none" xmlns="http://www.w3.org/2000/svg">
<g id="youtube 1" clip-path="url(#clip0_24_149)">
<g id="Group">
<g id="Group_2">
<path id="Vector" d="M47.6471 27.387C47.3912 26.2233 46.8237 25.2475 45.9466 24.4591C45.0687 23.6706 44.0584 23.2072 42.9145 23.0691C39.2867 22.6748 33.8153 22.4778 26.4997 22.4778C19.1843 22.4778 13.7227 22.6749 10.1143 23.0691C8.95129 23.2072 7.93589 23.6706 7.06801 24.4591C6.20033 25.2478 5.6285 26.2237 5.35233 27.387C4.83976 29.6746 4.58337 33.125 4.58337 37.7389C4.58337 42.4315 4.83976 45.8822 5.35233 48.0908C5.60903 49.2536 6.17598 50.2303 7.0534 51.0184C7.93082 51.8071 8.94135 52.2605 10.0848 52.3789C13.7132 52.793 19.185 53.0001 26.4999 53.0001C33.8144 53.0001 39.2872 52.793 42.9143 52.3789C44.0582 52.2605 45.0636 51.8071 45.9314 51.0184C46.7992 50.2304 47.3711 49.2536 47.6469 48.0908C48.1595 45.8032 48.4162 42.3528 48.4162 37.7389C48.4161 33.0463 48.1594 29.5954 47.6471 27.387ZM17.0951 30.3747H13.9305V47.2031H10.9731V30.3747H7.86742V27.5947H17.0952V30.3747H17.0951ZM25.0804 47.2031H22.4482V45.6056C21.3835 46.8088 20.3775 47.4101 19.4311 47.4101C18.5242 47.4101 17.9523 47.045 17.716 46.3158C17.5585 45.8425 17.4792 45.1225 17.4792 44.1565V32.5925H20.1115V43.3581C20.1115 43.9888 20.1214 44.3341 20.1413 44.3933C20.2005 44.8074 20.4073 45.0143 20.7624 45.0143C21.2947 45.0143 21.857 44.6003 22.4483 43.7722V32.5925H25.0805L25.0804 47.2031ZM35.1363 42.8257C35.1363 44.265 35.0478 45.2515 34.8711 45.784C34.5351 46.8678 33.8356 47.4101 32.771 47.4101C31.8245 47.4101 30.9078 46.8678 30.0201 45.784V47.2034H27.3882V27.5947H30.0201V34.0127C30.8684 32.9485 31.7848 32.416 32.771 32.416C33.8356 32.416 34.5351 32.9682 34.8711 34.0722C35.0476 34.5848 35.1363 35.5607 35.1363 37.0001V42.8257ZM45.1331 40.4008H39.8392V42.9739C39.8392 44.3345 40.2923 45.0143 41.1994 45.0143C41.8499 45.0143 42.2445 44.6598 42.3824 43.9494C42.4214 43.7524 42.4416 43.1511 42.4416 42.1457H45.133V42.53C45.133 43.4964 45.1128 44.0679 45.0737 44.2458C45.015 44.7775 44.8085 45.31 44.4527 45.8424C43.7429 46.8876 42.6772 47.4101 41.2578 47.4101C39.898 47.4101 38.8331 46.9072 38.0638 45.902C37.4923 45.1724 37.2066 44.0288 37.2066 42.4711V37.3541C37.2066 35.7965 37.4824 34.6528 38.034 33.9233C38.8033 32.9179 39.8582 32.4152 41.1994 32.4152C42.5207 32.4152 43.5665 32.9179 44.3344 33.9233C44.8675 34.6528 45.1331 35.7965 45.1331 37.3541V40.4008Z" fill="white"/>
<path id="Vector_2" d="M31.3502 34.811C30.8965 34.811 30.4533 35.0287 30.0193 35.4619V44.3639C30.4532 44.7975 30.8965 45.0143 31.3502 45.0143C32.1187 45.0143 32.5042 44.3543 32.5042 43.0326V36.7927C32.5041 35.4714 32.1196 34.811 31.3502 34.811Z" fill="white"/>
<path id="Vector_3" d="M41.17 34.811C40.2828 34.811 39.8392 35.4818 39.8392 36.8217V38.1823H42.5007V36.8217C42.5007 35.4811 42.057 34.811 41.17 34.811Z" fill="white"/>
<path id="Vector_4" d="M15.3805 11.8008V19.8161H18.3379V11.8008L21.916 0H18.8994L16.8887 7.77855L14.7886 0H11.6537C12.2058 1.65642 12.8466 3.49982 13.5762 5.53083C14.5031 8.25165 15.1041 10.342 15.3805 11.8008Z" fill="white"/>
<path id="Vector_5" d="M25.8791 20.0233C27.2397 20.0233 28.2844 19.5204 29.014 18.5149C29.5663 17.7853 29.8421 16.6218 29.8421 15.025V9.84896C29.8421 8.27178 29.5656 7.11799 29.014 6.38839C28.2844 5.38284 27.2397 4.88 25.8791 4.88C24.5577 4.88 23.5224 5.38284 22.7735 6.38839C22.2216 7.11799 21.9456 8.27178 21.9456 9.84896V15.0249C21.9456 16.6021 22.2213 17.7656 22.7735 18.5148C23.5227 19.5204 24.5576 20.0233 25.8791 20.0233ZM24.6071 9.3165C24.6071 7.95594 25.0311 7.27565 25.8791 7.27565C26.7271 7.27565 27.1507 7.95594 27.1507 9.3165V15.5273C27.1507 16.908 26.7271 17.5976 25.8791 17.5976C25.0311 17.5976 24.6071 16.9076 24.6071 15.5273V9.3165Z" fill="white"/>
<path id="Vector_6" d="M34.0118 20.0232C34.9983 20.0232 36.0141 19.4119 37.0588 18.1891V19.8158H39.7502V5.0575H37.0588V16.3258C36.4671 17.1738 35.9055 17.5974 35.3724 17.5974C35.0172 17.5974 34.8101 17.3806 34.7513 16.9469C34.7315 16.9074 34.7215 16.562 34.7215 15.9116V5.0575H32.0302V16.7107C32.0302 17.716 32.1096 18.4551 32.267 18.9287C32.5236 19.6582 33.105 20.0232 34.0118 20.0232Z" fill="white"/>
</g>
</g>
</g>
<defs>
<clipPath id="clip0_24_149">
<rect width="53" height="53" fill="white"/>
</clipPath>
</defs>
</svg>
